<svg width="368" height="46" viewBox="0 0 368 46" fill="none" xmlns="http://www.w3.org/2000/svg">
<path d="M218.475 1.14256C218.064 1.55394 217.833 2.11189 217.833 2.6937C217.833 3.2755 218.064 3.83346 218.475 4.24484C218.886 4.65624 219.444 4.88732 220.026 4.88732C220.608 4.88732 221.166 4.65624 221.577 4.24484C221.989 3.83346 222.22 3.2755 222.22 2.6937C222.22 2.11189 221.989 1.55394 221.577 1.14256C221.166 0.731196 220.608 0.5 220.026 0.5C219.444 0.5 218.886 0.731196 218.475 1.14256Z" fill="black" stroke="black"/>
<path d="M15.7321 2.3833C23.1717 2.3833 28.7858 6.57038 30.5704 13.3607H22.1931C20.9009 10.6853 18.5392 9.34921 15.6412 9.34921C10.9617 9.34921 7.75631 12.8243 7.75631 18.3506C7.75631 23.877 10.9617 27.3521 15.6412 27.3521C18.5392 27.3521 20.9009 26.0159 22.1931 23.3406H30.5704C28.7858 30.1152 23.1717 34.2584 15.7321 34.2584C6.50802 34.2584 0 27.7065 0 18.3506C0 8.99478 6.50802 2.3833 15.7321 2.3833Z" fill="#A34327"/>
<path d="M46.5659 34.3776C39.2581 34.3776 33.7318 29.4754 33.7318 21.5874C33.7318 13.6993 39.3773 8.80029 46.6537 8.80029C53.9302 8.80029 59.5757 13.6993 59.5757 21.5874C59.5757 29.4754 53.8737 34.3776 46.5659 34.3776ZM46.5659 27.7912C49.2852 27.7912 51.8225 25.787 51.8225 21.5968C51.8225 17.4066 49.3134 15.4024 46.6537 15.4024C43.8906 15.4024 41.485 17.3627 41.485 21.5968C41.485 25.8309 43.8028 27.7817 46.5659 27.7817V27.7912Z" fill="#A34327"/>
<path d="M78.9147 8.79395C85.0213 8.79395 89.8764 13.693 89.8764 21.5371C89.8764 29.3812 85.0213 34.3712 78.9147 34.3712C75.2608 34.3712 72.6419 32.6305 71.2525 30.5386V45.8661H63.6311V9.1546H71.2525V12.6768C72.6325 10.4907 75.2608 8.79395 78.9147 8.79395ZM76.6503 15.4368C73.7961 15.4368 71.2118 17.6323 71.2118 21.5873C71.2118 25.5423 73.7961 27.7377 76.6503 27.7377C79.5044 27.7377 82.1295 25.5077 82.1295 21.5433C82.1295 17.5789 79.5389 15.4368 76.6503 15.4368Z" fill="#A34327"/>
<path d="M109.171 8.79395C115.275 8.79395 120.149 13.693 120.149 21.5371C120.149 29.3812 115.291 34.3712 109.171 34.3712C105.518 34.3712 102.899 32.6305 101.506 30.5386V45.8661H93.9004V9.1546H101.522V12.6768C102.886 10.4907 105.505 8.79395 109.171 8.79395ZM106.898 15.4305C104.047 15.4305 101.462 17.626 101.462 21.581C101.462 25.536 104.047 27.7314 106.898 27.7314C109.749 27.7314 112.38 25.5015 112.38 21.5371C112.38 17.5727 109.796 15.4368 106.898 15.4368V15.4305Z" fill="#A34327"/>
<path d="M135.191 34.3776C127.883 34.3776 122.626 29.4754 122.626 21.5874C122.626 13.6993 127.795 8.80029 135.191 8.80029C142.455 8.80029 147.58 13.6115 147.58 21.1859C147.579 21.9312 147.534 22.6759 147.445 23.4159H130.195C130.461 26.6683 132.468 28.1832 134.918 28.1832C137.057 28.1832 138.261 27.1136 138.886 25.7775H146.993C145.798 30.6327 141.385 34.3776 135.191 34.3776ZM130.245 19.1818H139.783C139.783 16.4625 137.644 14.9037 135.103 14.9037C132.563 14.9037 130.69 16.4186 130.245 19.1818Z" fill="#A34327"/>
<path d="M159.209 34.02H151.588V9.15473H159.209V13.298C160.947 10.6697 163.666 8.88818 167.006 8.88818V16.9487H164.911C161.305 16.9487 159.209 18.2033 159.209 22.475V34.02Z" fill="#A34327"/>
<path d="M174.533 11.5602H170.879V9.82265H174.533V3.67529H176.537V9.82265H183.719V11.5602H176.537V27.5558C176.537 31.2097 177.741 32.2353 180.994 32.2353H183.719V34.0167H180.69C176.546 34.0167 174.542 32.3231 174.542 27.5558L174.533 11.5602Z" fill="black"/>
<path d="M199.439 9.51221C204.786 9.51221 208.353 12.498 209.689 16.1519V9.82271H211.693V34.0199H209.689V27.6468C208.353 31.3446 204.743 34.3775 199.439 34.3775C192.667 34.3775 187.765 29.5192 187.765 21.8978C187.765 14.2764 192.667 9.51221 199.439 9.51221ZM199.709 11.2498C193.869 11.2498 189.816 15.2142 189.816 21.9135C189.816 28.6128 193.869 32.6086 199.709 32.6086C205.354 32.6086 209.689 28.4654 209.689 21.9135C209.689 15.4369 205.36 11.2498 199.715 11.2498H199.709Z" fill="black"/>
<path d="M219 9.82275H221.005V34.02H219V9.82275Z" fill="black"/>
<path d="M247.074 19.9847C247.074 14.1008 243.822 11.0711 238.967 11.0711C233.93 11.0711 230.367 14.2357 230.367 20.9633V34.02H228.359V9.82279H230.367V14.9477C231.791 11.206 235.269 9.3335 239.277 9.3335C244.669 9.3335 249.038 12.5859 249.038 19.8498V34.02H247.074V19.9847Z" fill="black"/>
<path d="M292.166 19.9847C292.166 14.1008 289.093 11.0711 284.413 11.0711C279.646 11.0711 276.124 14.3674 276.124 21.1421V34.02H274.164V19.9847C274.164 14.1008 271.09 11.0711 266.41 11.0711C261.599 11.0711 258.124 14.3674 258.124 21.1421V34.02H256.117V9.82279H258.124V15.0825C259.548 11.162 262.891 9.3335 266.724 9.3335C270.911 9.3335 274.477 11.4725 275.678 16.105C276.883 11.4725 280.537 9.3335 284.724 9.3335C289.893 9.3335 294.133 12.5859 294.133 19.8498V34.02H292.173L292.166 19.9847Z" fill="black"/>
<path d="M311.772 34.3775C304.997 34.3775 300.007 29.6541 300.007 21.8978C300.007 14.1917 304.91 9.51221 311.772 9.51221C319.036 9.51221 323.044 14.6809 323.044 20.2951C323.064 21.098 323.035 21.9014 322.956 22.7007H302.059C302.234 29.4314 306.782 32.6368 311.781 32.6368C316.549 32.6368 319.98 30.0994 320.783 26.088H322.875C321.931 30.8553 317.957 34.3775 311.772 34.3775ZM302.049 21.0541H321.031C321.344 14.3234 316.618 11.2058 311.719 11.2058C306.782 11.2058 302.275 14.3674 302.059 21.0541H302.049Z" fill="black"/>
<path d="M347.818 19.9847C347.818 14.1008 344.566 11.0711 339.711 11.0711C334.674 11.0711 331.111 14.2357 331.111 20.9633V34.02H329.104V9.82279H331.111V14.9477C332.535 11.206 336.01 9.3335 340.021 9.3335C345.413 9.3335 349.782 12.5859 349.782 19.8498V34.02H347.818V19.9847Z" fill="black"/>
<path d="M357.845 11.5602H354.191V9.82265H357.845V3.67529H359.849V9.82265H367.022V11.5602H359.849V27.5558C359.849 31.2097 361.054 32.2353 364.306 32.2353H367.022V34.0167H363.993C359.849 34.0167 357.845 32.3231 357.845 27.5558V11.5602Z" fill="black"/>
</svg>
