<svg width="19" height="18" viewBox="0 0 19 18" fill="none" xmlns="http://www.w3.org/2000/svg">
<g clip-path="url(#clip0_467_1086)">
<path d="M18.5 2.33998C18.13 3.03998 17.72 3.90998 17.22 4.72998C15.71 7.19998 14.16 9.64998 12.65 12.12C8.36 19.13 6.5 19.3 1.12 13.23C0.199998 12.19 -0.560002 11.21 0.559998 9.88998C1.69 8.56998 3.03 8.92998 3.91 9.95998C6.89 13.38 8.26 11.27 9.77 8.55998C11.17 6.02998 12.8 3.61998 14.36 1.18998C15.05 0.10998 16.07 -0.26002 17.28 0.23998C18.1 0.57998 18.42 1.29998 18.48 2.35998L18.5 2.33998Z" fill="#58BB4B"/>
</g>
<defs>
<clipPath id="clip0_467_1086">
<rect width="18.5" height="17.59" fill="white"/>
</clipPath>
</defs>
</svg>
