<svg width="188" height="187" viewBox="0 0 188 187" fill="none" xmlns="http://www.w3.org/2000/svg">
<path d="M118.683 141.081C126.269 136.031 133.26 130.237 138.169 122.513C137.425 123.553 143.672 113.897 143.821 113.6C144.862 111.669 145.755 109.738 146.647 107.658C148.581 103.35 150.068 98.745 151.11 93.9915C152.151 89.6835 152.746 85.2271 152.895 80.7706C153.192 74.6801 152.895 68.5896 151.556 62.6477C150.812 59.3796 149.92 56.2601 149.027 53.1406C147.688 48.6841 145.755 44.5247 143.524 40.5139C141.739 37.2459 139.656 34.1264 137.425 31.1554C134.599 27.4417 131.326 23.8765 127.756 20.757C123.889 17.1918 119.724 14.2208 115.262 11.547C111.692 9.31872 107.824 7.53614 103.957 5.90211C98.602 3.82243 93.0984 2.18838 87.2973 1.29709C86.7023 1.14854 86.1073 1.14855 85.5123 1C85.6611 1.14855 85.8098 1.29709 85.9586 1.29709C87.7435 1.89129 89.5285 2.48549 91.1647 3.07968C93.9909 4.11952 96.6683 5.45646 99.197 7.09049C102.916 9.31872 106.337 11.8441 109.461 14.815C112.584 17.6375 115.262 20.757 117.79 24.1736C120.319 27.7388 122.55 31.4525 124.484 35.3147C126.715 39.9197 128.351 44.8219 129.541 49.724C130.434 53.5862 131.029 57.4485 131.326 61.4593C131.921 67.9954 131.475 74.383 130.583 80.9192C130.136 84.1872 129.244 87.3068 128.649 90.4263C128.351 91.6147 128.054 92.6545 127.608 93.9915C127.756 93.9915 121.807 107.212 121.509 107.509C119.873 109.886 118.237 112.411 116.6 114.64C114.518 117.462 111.989 119.987 109.312 122.216C107.973 123.256 106.634 124.295 105.296 125.335C102.767 126.821 102.469 127.118 99.3458 128.752C95.7758 130.534 92.2059 131.723 88.4873 132.614C83.1324 133.802 77.6288 133.951 72.1251 133.357C67.8115 132.911 63.7953 131.871 59.6304 130.386C55.6142 128.9 51.8956 126.969 48.3257 124.741C42.9708 121.324 38.2109 117.165 34.046 112.263C31.2198 108.995 28.8398 105.43 26.7574 101.716C24.3774 97.5566 22.5925 93.2487 21.105 88.7923C19.915 85.2271 19.1713 81.5134 18.5763 77.6511C17.8326 73.0461 17.6838 68.5896 17.8326 63.9846C17.8326 59.5282 17.9813 55.0717 18.4276 50.7638C18.5763 49.2783 18.8738 47.7928 19.0225 46.3073C19.0225 46.3073 21.105 23.5794 20.8075 24.025C19.7663 25.362 18.7251 26.6989 17.8326 28.0358C15.6014 30.8583 13.3702 33.6807 11.2877 36.6517C8.75901 40.3654 6.52781 44.3762 5.04035 48.6841C3.99912 51.6551 2.9579 54.6261 2.21417 57.7456C1.32169 61.3107 0.726694 65.0245 0.429201 68.7382C-0.165786 74.6801 -0.165789 80.7706 0.577945 86.7126C1.02419 90.2777 1.61916 93.8429 2.66039 97.2595C3.55287 100.23 4.44535 103.35 5.63532 106.172C7.42029 110.926 9.94898 115.531 12.7752 119.839C15.1551 123.256 17.6838 126.672 20.51 129.643C24.9724 134.397 29.881 138.556 35.3847 141.973C39.1033 144.349 42.9708 146.429 46.9869 148.063C51.7468 149.994 56.6555 151.628 61.7129 152.52C65.134 153.262 68.5552 153.559 71.9764 153.857C77.3313 154.154 82.5374 154.005 87.8923 153.262C91.7597 152.668 95.4784 151.925 99.197 150.737C104.403 149.103 109.461 147.023 114.22 144.349C114.22 143.755 116.898 142.121 118.683 141.081Z" fill="black"/>
<path d="M118.116 141.477C118.116 141.477 103.408 123.683 102.665 122.942C99.3965 118.938 96.1281 114.934 92.8596 110.931C89.4426 106.779 85.8771 102.627 82.46 98.3268C79.1916 94.3232 75.9231 90.3195 72.5061 86.3159C70.1291 83.3502 67.6035 80.3846 65.2264 77.4189C61.8094 73.267 58.3924 69.1151 54.9754 64.9632C51.4098 60.8112 47.9928 56.511 44.4273 52.3591C41.1588 48.3555 37.8904 44.3518 34.6219 40.3482C31.7992 36.9377 28.9765 33.5272 26.1537 30.1167C24.5195 28.189 22.8852 26.2613 21.3996 24.3336C20.9539 23.8888 20.8053 23.8888 20.5082 24.3336C19.4683 25.6682 18.4283 27.0027 17.5369 28.3373C15.3084 31.1547 13.0799 33.972 11 36.9377L19.1711 46.5761C45.9129 74.0084 72.5061 101.441 99.2479 128.873L114.55 144.591C114.55 144.591 120.493 150.819 123.613 153.933C129.852 160.309 135.944 166.685 142.183 173.061C145.749 176.62 149.166 180.327 152.732 183.886C153.771 184.924 154.96 185.962 156 187C143.223 171.727 118.116 141.477 118.116 141.477Z" fill="black"/>
<path d="M187.829 170.411C185.312 167.317 182.943 164.076 180.427 160.982C178.058 157.888 175.689 154.942 173.32 151.848C170.952 148.754 168.583 145.661 166.066 142.567C163.697 139.473 161.328 136.379 158.812 133.286C156.295 129.897 153.63 126.656 151.113 123.268C148.892 120.469 146.672 117.522 144.451 114.723C144.155 114.429 128.017 93.6563 128.017 93.5089C125.057 89.6786 121.948 85.7009 118.987 81.8705C118.69 81.4286 118.246 80.9866 118.246 80.3973C118.098 78.7768 117.95 77.3036 117.654 75.683C117.506 74.5045 117.358 73.3259 117.21 72C111.14 77.5982 105.218 83.0491 99 88.6473C100.777 88.7946 102.405 88.942 104.034 89.2366C104.33 89.2366 104.626 89.3839 104.922 89.6786C105.81 90.4152 106.55 91.2991 107.291 92.0357C112.324 96.8973 122.244 106.621 122.244 106.621C122.244 106.621 171.396 154.942 187.829 171C188.125 170.705 187.977 170.558 187.829 170.411Z" fill="black"/>
<path d="M53.3538 19C47.9462 19 44 15.0241 44 9.57576C44 3.53835 48.9692 -0.142996 53.2077 0.00425824C58.9077 0.151512 62.8538 3.98011 63 9.72301C62.8538 14.8769 58.6154 19 53.3538 19Z" fill="black"/>
</svg>
