<svg width="23" height="23" viewBox="0 0 23 23" fill="none" xmlns="http://www.w3.org/2000/svg">
<g clip-path="url(#clip0_467_1073)">
<path d="M0.130569 1.05363C0.141061 0.858313 0.323459 0.748901 0.371077 0.572221L0.605128 0.337188C0.724575 0.0948613 0.919887 -0.00806691 1.18622 0.0186782C1.42834 -0.00725645 1.67047 0.00165859 1.91178 0.00165859C8.13352 0.00165859 14.3553 0.00165859 20.5778 0.000848135C21.0201 0.000848135 21.4632 -0.0145506 21.8974 0.0964822C22.0943 0.105397 22.2032 0.28694 22.3784 0.33962C22.5075 0.453084 22.5358 0.651646 22.706 0.731071C22.8094 0.755385 22.836 0.838862 22.8578 0.927202L22.8521 1.05444C23.0773 1.88273 22.9772 2.72885 22.978 3.56687C22.9861 9.24899 22.9821 14.9311 22.9829 20.614C22.9829 20.8556 22.974 21.0979 22.9982 21.3386C23.0095 21.4196 22.9918 21.495 22.9522 21.5663C22.9958 21.8062 22.7714 21.9748 22.7819 22.2058C22.7521 22.2868 22.6738 22.3152 22.6116 22.3614C22.5333 22.44 22.4559 22.5194 22.3776 22.598C22.1597 22.8517 21.9135 23.0446 21.5487 22.979C21.4543 22.9701 21.3607 22.9684 21.2662 22.9684C14.7443 22.9668 8.22229 22.9668 1.69952 22.9684C1.61881 22.9684 1.53811 22.9701 1.45901 22.9782C1.11439 23.0714 0.884376 22.8347 0.622884 22.6872C0.506665 22.6134 0.409009 22.5194 0.329916 22.4068C0.266157 22.3193 0.264543 22.2042 0.203205 22.115L0.128955 21.8816C-0.000177253 21.3013 -0.000177251 20.7113 -0.000177251 20.1205C0.00224397 14.6086 -0.00663384 9.09581 0.0103147 3.58388C0.0127359 2.74101 -0.0292319 1.89084 0.131376 1.05363H0.130569Z" fill="#003790"/>
<path d="M9.32574 4.20385C9.63001 4.17711 9.90764 4.32137 10.2038 4.34568C10.2603 4.32137 10.3136 4.3157 10.3612 4.36432C11.4879 4.71687 12.6396 4.99162 13.7445 5.41387C13.9922 5.50869 14.2344 5.6181 14.4789 5.72022C14.5782 5.7032 14.6532 5.73886 14.7065 5.82315C15.7622 6.4083 16.3804 7.29818 16.5684 8.48956C16.6273 8.54467 16.608 8.62571 16.6362 8.69136C16.6443 9.43617 16.7371 10.1891 16.4119 10.8999C15.9914 11.8457 15.2876 12.2793 14.2432 12.1196C13.9196 12.0702 13.6323 11.9405 13.349 11.7897C13.2788 11.6787 13.3095 11.5547 13.3103 11.438C13.3224 10.0229 13.2796 8.60707 13.3312 7.19201C13.328 6.98454 13.2659 6.80218 13.1166 6.65063C12.8107 6.34022 12.5282 6.38723 12.3151 6.78678C12.3402 6.86702 12.3628 6.94726 12.2934 7.01939C12.2062 7.15554 12.2506 7.3071 12.2506 7.45055C12.2473 10.7791 12.2409 14.1068 12.2578 17.4354C12.2595 17.8293 12.1634 17.8617 11.8212 17.7555C11.0642 17.5205 10.3338 17.1971 9.54284 17.0756C9.46214 17.0634 9.4347 16.9281 9.32493 16.9418C9.23616 16.8357 9.27651 16.7092 9.27651 16.5933C9.27409 12.5799 9.27409 8.56574 9.27651 4.55235C9.27651 4.43564 9.23535 4.30921 9.32574 4.20385Z" fill="#FEFEFE"/>
<path d="M16.0124 13.824C14.9535 14.1669 13.8978 14.5202 12.8664 14.94C12.8373 14.9668 12.8083 14.9684 12.7784 14.94C12.7695 14.4197 12.7695 13.8994 12.7485 13.3791C12.7405 13.1749 12.8656 13.1376 13.0084 13.0914C13.6662 12.8815 14.3377 12.7364 15.0253 12.6716C15.1439 12.6602 15.2658 12.6748 15.3715 12.6027C15.8235 12.5289 16.2763 12.5289 16.7282 12.6027C17.5555 12.7429 18.3916 12.8353 19.1801 13.153C19.5272 13.2924 19.8815 13.4107 20.1639 13.6701C20.5328 14.0088 20.5441 14.3938 20.1914 14.7488C19.762 15.1816 19.2035 15.3761 18.6491 15.5746C16.8154 16.2319 14.9801 16.8851 13.1464 17.5416C13.1246 17.5497 13.1109 17.5781 13.0932 17.5967C13.0052 17.6761 12.9043 17.7126 12.7857 17.6826C12.7114 17.1761 12.7744 16.6671 12.7518 16.1598C12.7421 15.9539 12.8914 15.9385 13.0326 15.8883C14.3627 15.415 15.6911 14.9368 17.0188 14.4586C17.1689 14.4043 17.3142 14.3387 17.4619 14.2787C17.4772 14.2674 17.4877 14.2601 17.4933 14.2552C17.5999 14.1677 17.7855 14.1142 17.7492 13.9456C17.7104 13.7641 17.5046 13.8565 17.3852 13.7949L17.39 13.803C17.118 13.6757 16.8372 13.7227 16.5571 13.7608C16.3731 13.7633 16.2012 13.8719 16.0115 13.8232L16.0124 13.824Z" fill="#FEFEFE"/>
<path d="M8.81809 16.1338C8.15468 16.2643 7.48561 16.3234 6.81009 16.3242C6.48645 16.3291 6.15232 16.4555 5.84564 16.2464C5.21208 16.1492 4.58741 16.0122 3.97726 15.8161C3.61973 15.701 3.27349 15.5551 2.99828 15.2893C2.59071 14.8962 2.6125 14.4869 3.05235 14.1295C3.40989 13.8386 3.82876 13.653 4.25328 13.499C5.77058 12.9511 7.29595 12.4243 8.81809 11.8894C8.90283 12.4454 8.89396 13.0022 8.82455 13.5589C7.94645 13.8823 7.06916 14.2057 6.19106 14.5283C6.05305 14.5785 5.9102 14.6158 5.77623 14.6741C5.61885 14.7422 5.39529 14.799 5.40901 14.9983C5.42515 15.2325 5.66485 15.2236 5.84564 15.252C6.275 15.2269 6.70678 15.2334 7.13453 15.1758C7.53161 15.1013 7.89722 14.9383 8.26444 14.7795C8.40164 14.6563 8.56628 14.6085 8.74707 14.6069C8.77128 14.6174 8.7963 14.6255 8.82293 14.6296C8.89557 15.1312 8.90203 15.6337 8.8189 16.1346L8.81809 16.1338Z" fill="#FEFEFE"/>
</g>
<defs>
<clipPath id="clip0_467_1073">
<rect width="23" height="23" fill="white"/>
</clipPath>
</defs>
</svg>
